<svg width="1156" height="867" viewBox="0 0 1156 867" fill="none" xmlns="http://www.w3.org/2000/svg">
<rect x="68" y="94" width="1020" height="773" rx="10" fill="#202020"/>
<mask id="path-3-inside-1_30_22" fill="white">
<path d="M68 94H1088V142H68V94Z"/>
</mask>
<path d="M68 94H1088V142H68V94Z" fill="#3B3B3B"/>
<path d="M1088 142V141H68V142V143H1088V142Z" fill="#7C7C7C" mask="url(#path-3-inside-1_30_22)"/>
<rect x="1057" y="110" width="15" height="15" rx="7.5" fill="#D9D9D9"/>
<rect x="1036" y="110" width="15" height="15" rx="7.5" fill="#D9D9D9"/>
<rect x="1015" y="110" width="15" height="15" rx="7.5" fill="#D9D9D9"/>
<rect x="132" y="196" width="270" height="248" rx="15" fill="url(#paint0_linear_30_22)"/>
<rect x="132" y="462" width="270" height="34" rx="15" fill="url(#paint1_linear_30_22)"/>
<rect x="132" y="527" width="925" height="34" rx="15" fill="url(#paint2_linear_30_22)"/>
<rect x="132" y="592" width="925" height="34" rx="15" fill="url(#paint3_linear_30_22)"/>
<rect x="132" y="657" width="925" height="34" rx="15" fill="url(#paint4_linear_30_22)"/>
<rect x="132" y="722" width="925" height="34" rx="15" fill="url(#paint5_linear_30_22)"/>
<rect x="132" y="787" width="451" height="34" rx="15" fill="url(#paint6_linear_30_22)"/>
<rect x="606" y="787" width="451" height="34" rx="15" fill="url(#paint7_linear_30_22)"/>
<rect x="787" y="196" width="270" height="248" rx="15" fill="url(#paint8_linear_30_22)"/>
<rect x="787" y="462" width="270" height="34" rx="15" fill="url(#paint9_linear_30_22)"/>
<rect x="460" y="196" width="270" height="248" rx="15" fill="url(#paint10_linear_30_22)"/>
<rect x="460" y="462" width="270" height="34" rx="15" fill="url(#paint11_linear_30_22)"/>
<rect width="1156" height="275" transform="translate(0 592)" fill="url(#paint12_linear_30_22)"/>
<defs>
<linearGradient id="paint0_linear_30_22" x1="267" y1="196" x2="267" y2="444" gradientUnits="userSpaceOnUse">
<stop stop-color="#3F3F3F"/>
<stop offset="1" stop-color="#323232"/>
</linearGradient>
<linearGradient id="paint1_linear_30_22" x1="267" y1="462" x2="267" y2="496" gradientUnits="userSpaceOnUse">
<stop stop-color="#3F3F3F"/>
<stop offset="1" stop-color="#323232"/>
</linearGradient>
<linearGradient id="paint2_linear_30_22" x1="594.5" y1="527" x2="594.5" y2="561" gradientUnits="userSpaceOnUse">
<stop stop-color="#3F3F3F"/>
<stop offset="1" stop-color="#323232"/>
</linearGradient>
<linearGradient id="paint3_linear_30_22" x1="594.5" y1="592" x2="594.5" y2="626" gradientUnits="userSpaceOnUse">
<stop stop-color="#3F3F3F"/>
<stop offset="1" stop-color="#323232"/>
</linearGradient>
<linearGradient id="paint4_linear_30_22" x1="594.5" y1="657" x2="594.5" y2="691" gradientUnits="userSpaceOnUse">
<stop stop-color="#3F3F3F"/>
<stop offset="1" stop-color="#323232"/>
</linearGradient>
<linearGradient id="paint5_linear_30_22" x1="594.5" y1="722" x2="594.5" y2="756" gradientUnits="userSpaceOnUse">
<stop stop-color="#3F3F3F"/>
<stop offset="1" stop-color="#323232"/>
</linearGradient>
<linearGradient id="paint6_linear_30_22" x1="357.5" y1="787" x2="357.5" y2="821" gradientUnits="userSpaceOnUse">
<stop stop-color="#3F3F3F"/>
<stop offset="1" stop-color="#323232"/>
</linearGradient>
<linearGradient id="paint7_linear_30_22" x1="831.5" y1="787" x2="831.5" y2="821" gradientUnits="userSpaceOnUse">
<stop stop-color="#3F3F3F"/>
<stop offset="1" stop-color="#323232"/>
</linearGradient>
<linearGradient id="paint8_linear_30_22" x1="922" y1="196" x2="922" y2="444" gradientUnits="userSpaceOnUse">
<stop stop-color="#3F3F3F"/>
<stop offset="1" stop-color="#323232"/>
</linearGradient>
<linearGradient id="paint9_linear_30_22" x1="922" y1="462" x2="922" y2="496" gradientUnits="userSpaceOnUse">
<stop stop-color="#3F3F3F"/>
<stop offset="1" stop-color="#323232"/>
</linearGradient>
<linearGradient id="paint10_linear_30_22" x1="595" y1="196" x2="595" y2="444" gradientUnits="userSpaceOnUse">
<stop stop-color="#3F3F3F"/>
<stop offset="1" stop-color="#323232"/>
</linearGradient>
<linearGradient id="paint11_linear_30_22" x1="595" y1="462" x2="595" y2="496" gradientUnits="userSpaceOnUse">
<stop stop-color="#3F3F3F"/>
<stop offset="1" stop-color="#323232"/>
</linearGradient>
<linearGradient id="paint12_linear_30_22" x1="620" y1="0" x2="620" y2="275" gradientUnits="userSpaceOnUse">
<stop stop-opacity="0"/>
<stop offset="1" stop-color="#282828"/>
</linearGradient>
</defs>
</svg>
